<?xml version="1.0" encoding="UTF-8"?>
<svg id="Layer_1" data-name="Layer 1" xmlns="http://www.w3.org/2000/svg" viewBox="0 0 872 872">
  <defs>
    <style>
      .cls-1, .cls-2, .cls-3, .cls-4 {
        stroke-width: 8px;
      }

      .cls-1, .cls-2, .cls-3, .cls-4, .cls-5 {
        fill: none;
        stroke-miterlimit: 10;
      }

      .cls-1, .cls-4 {
        stroke: #be1e2d;
      }

      .cls-2, .cls-5 {
        stroke: #231f20;
      }

      .cls-3 {
        stroke: #006838;
      }

      .cls-3, .cls-4 {
        stroke-linecap: round;
      }

      .cls-5 {
        stroke-width: 6px;
      }
    </style>
  </defs>
  <circle class="cls-2" cx="436" cy="436" r="432"/>
  <circle class="cls-2" cx="436" cy="436" r="396"/>
  <circle class="cls-2" cx="436" cy="436" r="135"/>
  <circle class="cls-2" cx="436" cy="436" r="99"/>
  <line class="cls-2" x1="418" y1="301" x2="418" y2="40"/>
  <line class="cls-2" x1="454" y1="40" x2="454" y2="301"/>
  <line class="cls-2" x1="571" y1="454" x2="832" y2="454"/>
  <line class="cls-2" x1="571" y1="418" x2="832" y2="418"/>
  <line class="cls-2" x1="454" y1="571" x2="454" y2="832"/>
  <line class="cls-2" x1="418" y1="571" x2="418" y2="832"/>
  <line class="cls-2" x1="301" y1="454" x2="40" y2="454"/>
  <line class="cls-2" x1="301" y1="418" x2="40" y2="418"/>
  <circle class="cls-5" cx="436" cy="166" r="9"/>
  <circle class="cls-5" cx="436" cy="706" r="9"/>
  <circle class="cls-5" cx="166" cy="436" r="9"/>
  <circle class="cls-5" cx="706" cy="436" r="9"/>
  <circle class="cls-5" cx="436" cy="22" r="9"/>
  <circle class="cls-5" cx="22" cy="436" r="9"/>
  <circle class="cls-5" cx="850" cy="436" r="9"/>
  <circle class="cls-5" cx="436" cy="850" r="9"/>
  <circle class="cls-5" cx="229" cy="77.47" r="9"/>
  <circle class="cls-5" cx="77.47" cy="643" r="9"/>
  <circle class="cls-5" cx="794.53" cy="229" r="9"/>
  <circle class="cls-5" cx="643" cy="794.53" r="9"/>
  <circle class="cls-5" cx="77.47" cy="229" r="9"/>
  <circle class="cls-5" cx="229" cy="794.53" r="9"/>
  <circle class="cls-5" cx="643" cy="77.47" r="9"/>
  <circle class="cls-5" cx="794.53" cy="643" r="9"/>
  <g id="Layer_2" data-name="Layer 2">
    <circle class="cls-1" cx="436" cy="436" r="13.48"/>
    <path class="cls-4" d="M402.29,436c0,13.48,2.32,24.12,20.23,33.71,6.07,3.49,13.48,8.28,13.48,13.48"/>
    <path class="cls-1" d="M469.71,436c0,13.48-2.32,24.12-20.23,33.71-6.07,3.49-13.48,8.28-13.48,13.48"/>
    <path class="cls-1" d="M402.29,436c0-13.48,2.32-24.12,20.23-33.71,6.07-3.49,13.48-8.28,13.48-13.48"/>
    <path class="cls-4" d="M469.71,436c0-13.48-2.32-24.12-20.23-33.71-6.07-3.49-13.48-8.28-13.48-13.48"/>
    <path class="cls-3" d="M491.39,577.43c13.07,15.04,20.99,34.68,20.99,56.17,0,47.3-38.35,85.65-85.65,85.65-17.64,0-34.04-5.33-47.67-14.48"/>
    <path class="cls-3" d="M294.34,382.81c-52.52,3.97-93.57-39.75-93.57-88.77s39.75-88.77,88.77-88.77c31.87,0,59.81,16.79,75.47,42"/>
    <path class="cls-3" d="M682.04,570.41c0-.27,0-.54,0-.82,0-46.45-37.65-84.1-84.1-84.1-7.63,0-15.01,1.01-22.04,2.92"/>
    <path class="cls-3" d="M575.73,383.31c24.94-10.97,42.35-35.89,42.35-64.89,0-39.13-31.72-70.85-70.85-70.85-15.37,0-29.6,4.89-41.21,13.21"/>
    <path class="cls-3" d="M283.54,647.76c-38.42-6.11-67.79-39.39-67.79-79.53,0-44.48,36.06-80.53,80.53-80.53"/>
    <path class="cls-4" d="M396.3,367.08c-2.36-14.68,1.54-27.45,19.48-35.96,7.86-2.94,16.48-6.74,20.23-12.74"/>
    <path class="cls-4" d="M475.76,367.06c2.36-14.68-1.54-27.45-19.48-35.96-7.86-2.94-16.48-6.74-20.23-12.74"/>
    <path class="cls-4" d="M396.21,504.75c-2.36,14.68,1.54,27.45,19.48,35.96,7.86,2.94,16.48,6.74,20.23,12.74"/>
    <path class="cls-4" d="M475.67,504.77c2.36,14.68-1.54,27.45-19.48,35.96-7.86,2.94-16.48,6.74-20.23,12.74"/>
    <path class="cls-4" d="M367.1,475.33c-14.68,2.36-27.45-1.54-35.96-19.48-2.94-7.86-6.74-16.48-12.74-20.23"/>
    <path class="cls-4" d="M367.08,395.87c-14.68-2.36-27.45,1.54-35.96,19.48-2.94,7.86-6.74,16.48-12.74,20.23"/>
    <path class="cls-4" d="M504.77,475.42c14.68,2.36,27.45-1.54,35.96-19.48,2.94-7.86,6.74-16.48,12.74-20.23"/>
    <path class="cls-4" d="M504.79,395.96c14.68-2.36,27.45,1.54,35.96,19.48,2.94,7.86,6.74,16.48,12.74,20.23"/>
    <path class="cls-4" d="M352.66,367.08c-23.04-25.47-3.56-69.67,36.89-71.17,23.97-1.5,44.2-14.98,46.45-44.57"/>
    <path class="cls-4" d="M519.77,367.18c23.04-25.47,3.56-69.67-36.89-71.17-23.97-1.5-44.2-14.98-46.45-44.57"/>
    <path class="cls-4" d="M352.48,504.83c-23.04,25.47-3.56,69.67,36.89,71.17,23.97,1.5,44.2,14.98,46.45,44.57"/>
    <path class="cls-4" d="M519.59,504.72c23.04,25.47,3.56,69.67-36.89,71.17-23.97,1.5-44.2,14.98-46.45,44.57"/>
    <path class="cls-4" d="M342.64,529.33c-22.4.62-45.57-17.62-46.65-46.72-1.5-23.97-14.98-44.2-44.57-46.45"/>
    <path class="cls-4" d="M342.82,342.57c-22.42-.66-45.64,17.59-46.72,46.72-1.5,23.97-14.98,44.2-44.57,46.45"/>
    <path class="cls-4" d="M529.43,529.51c22.4.62,45.57-17.62,46.65-46.72,1.5-23.97,14.98-44.2,44.57-46.45"/>
    <path class="cls-4" d="M529.61,342.74c22.31-.46,45.3,17.75,46.37,46.73,1.5,23.97,14.98,44.2,44.57,46.45"/>
    <path class="cls-4" d="M371.46,436c-7.73-13.17-8.61-26.64-2.14-40.45,4.45-8.97,3.82-18.41-2.24-28.36"/>
    <path class="cls-4" d="M435.67,371.33c-13.17-7.73-26.64-8.61-40.45-2.14-8.97,4.45-18.41,3.82-28.36-2.24"/>
    <path class="cls-4" d="M429.26,376.82c11.99-12.74,32.96-14.98,47.57-7.79,8.97,4.45,18.41,3.82,28.36-2.24"/>
    <path class="cls-4" d="M495.65,442.31c12.74-11.99,14.23-33.07,7.03-47.68-4.45-8.97-3.07-18.3,2.99-28.26"/>
    <path class="cls-4" d="M500.79,436.5c7.73,13.17,8.61,26.64,2.14,40.45-4.45,8.97-3.82,18.41,2.24,28.36"/>
    <path class="cls-4" d="M436.58,501.17c13.17,7.73,26.64,8.61,40.45,2.14,8.97-4.45,18.41-3.82,28.36,2.24"/>
    <path class="cls-4" d="M442.99,495.68c-11.99,12.74-32.96,14.98-47.57,7.79-8.97-4.45-18.41-3.82-28.36,2.24"/>
    <path class="cls-4" d="M376.6,430.19c-12.74,11.99-14.23,33.07-7.03,47.68,4.45,8.97,3.07,18.3-2.99,28.26"/>
    <path class="cls-4" d="M296.29,296.9c-.3,10.72-1.91,20.34-5.59,30.15-7.3,23.16-2.43,40.91,5.83,57.15"/>
    <path class="cls-4" d="M383.82,296.18c-16.24-8.26-33.98-13.13-57.15-5.83-9.81,3.69-19.44,5.29-30.15,5.59"/>
    <path class="cls-4" d="M575.72,384.2c8.26-16.24,13.13-33.98,5.83-57.15-3.69-9.81-5.29-19.44-5.59-30.15"/>
    <path class="cls-4" d="M488.42,296.18c16.24-8.26,33.98-13.13,57.15-5.83,9.81,3.69,19.44,5.29,30.15,5.59"/>
    <path class="cls-4" d="M296.07,487.74c-8.26,16.24-13.13,33.98-5.83,57.15,3.69,9.81,5.29,19.44,5.59,30.15"/>
    <path class="cls-4" d="M383.37,575.76c-16.24,8.26-33.98,13.13-57.15,5.83-9.81-3.69-19.44-5.29-30.15-5.59"/>
    <path class="cls-4" d="M575.62,488.13c8.26,16.24,12.78,33.59,5.48,56.75-3.69,9.81-5.29,19.44-5.59,30.15"/>
    <path class="cls-4" d="M487.97,575.76c16.24,8.26,33.98,13.13,57.15,5.83,9.81-3.69,19.44-5.29,30.15-5.59"/>
    <path class="cls-3" d="M199.6,487.67c14.54-15.07,15.25-30.72-2.16-47.15"/>
    <path class="cls-3" d="M199.75,487.71c-15.85-13.67-18-29.2-2.16-47.15"/>
    <path class="cls-3" d="M210.5,334.84c-12.48-16.81-27.8-20.08-46.86-5.6"/>
    <path class="cls-3" d="M210.57,334.7c-16.09,13.4-31.75,12.96-46.86-5.6"/>
    <path class="cls-3" d="M270.13,206.8c19.7-7.08,27.27-20.8,18.93-43.23"/>
    <path class="cls-3" d="M270.24,206.9c-8.17-19.28-3.22-34.15,18.93-43.23"/>
    <path class="cls-3" d="M354.15,127.94c15.17,7.22,25.66,22.69,25.66,40.61,0,24.82-20.12,44.95-44.95,44.95-2.7,0-5.35-.24-7.92-.7"/>
    <path class="cls-3" d="M223.43,603.55c-20.64,3.48-30.52,15.65-26.27,39.21"/>
    <path class="cls-3" d="M223.34,603.42c4.63,20.42-2.87,34.18-26.27,39.21"/>
    <path class="cls-3" d="M220.7,540.36c.16-1.82.29-4.73.29-6.6,0-33.31-27-60.31-60.31-60.31-23.9,0-44.56,13.91-54.32,34.07"/>
    <path class="cls-3" d="M587.34,634.37c2.56,5.31,3.99,11.26,3.99,17.55,0,22.35-18.12,40.48-40.48,40.48s-39.98-17.85-40.85-39.43"/>
    <path class="cls-3" d="M509.32,651.61c-17.1-12.08-32.68-10.4-46.27,9.3"/>
    <path class="cls-3" d="M509.34,651.46c-11.11,17.75-26.12,22.22-46.27,9.3"/>
    <path class="cls-3" d="M617.61,324.98c19.88,6.55,34.29.4,41.53-22.42"/>
    <path class="cls-3" d="M617.63,325.13c5.43-20.22,18.49-28.89,41.53-22.42"/>
    <path class="cls-3" d="M648.32,500.99c17.19,11.94,32.76,10.15,46.2-9.66"/>
    <path class="cls-3" d="M648.3,501.14c10.97-17.83,25.95-22.43,46.2-9.66"/>
    <path class="cls-3" d="M657.48,284.06c13.63-7.54,22.86-22.07,22.86-38.75,0-24.44-19.81-44.26-44.26-44.26s-44.26,19.81-44.26,44.26c0,10.13,3.4,19.46,9.12,26.91"/>
  </g>
</svg>